<?xml version="1.0" standalone="no"?>
<!DOCTYPE svg PUBLIC "-//W3C//DTD SVG 20010904//EN"
 "http://www.w3.org/TR/2001/REC-SVG-20010904/DTD/svg10.dtd">
<svg version="1.0" xmlns="http://www.w3.org/2000/svg"
 width="500.000000pt" height="500.000000pt" viewBox="0 0 500.000000 500.000000"
 preserveAspectRatio="xMidYMid meet">
<metadata>
Created by potrace 1.11, written by Peter Selinger 2001-2013
</metadata>
<g transform="translate(0.000000,500.000000) scale(0.100000,-0.100000)"
fill="#000000" stroke="none">
<path d="M0 2500 l0 -2500 2500 0 2500 0 0 2500 0 2500 -2500 0 -2500 0 0
-2500z m4870 0 l0 -2370 -2370 0 -2370 0 0 2370 0 2370 2370 0 2370 0 0 -2370z"/>
<path d="M270 2500 l0 -2230 2230 0 2230 0 0 2230 0 2230 -2230 0 -2230 0 0
-2230z m4120 1770 l0 -80 -377 -2 -378 -3 0 -245 0 -245 328 -3 327 -2 0 -80
0 -80 -330 0 -330 0 2 -267 3 -268 383 -3 382 -2 0 -80 0 -80 -485 0 -485 0 0
760 0 760 480 0 480 0 0 -80z m-296 -2041 c272 -37 426 -203 426 -458 0 -47
-5 -106 -11 -130 -25 -112 -104 -213 -205 -264 -108 -55 -141 -60 -416 -65
l-258 -4 0 -299 0 -300 -97 3 -98 3 -3 750 c-1 413 0 756 3 763 6 16 547 17
659 1z"/>
<path d="M3632 1773 l3 -298 220 0 c257 1 304 10 377 74 69 61 91 122 86 235
-6 134 -52 207 -163 258 -47 22 -65 23 -288 26 l-237 4 2 -299z"/>
</g>
</svg>
