<?xml version="1.0" standalone="no"?>
<!DOCTYPE svg PUBLIC "-//W3C//DTD SVG 20010904//EN"
 "http://www.w3.org/TR/2001/REC-SVG-20010904/DTD/svg10.dtd">
<svg version="1.0" xmlns="http://www.w3.org/2000/svg"
 width="500.000000pt" height="500.000000pt" viewBox="0 0 500.000000 500.000000"
 preserveAspectRatio="xMidYMid meet">
<metadata>
Created by potrace 1.11, written by Peter Selinger 2001-2013
</metadata>
<g transform="translate(0.000000,500.000000) scale(0.100000,-0.100000)"
fill="#000000" stroke="none">
<path d="M0 2500 l0 -2500 2500 0 2500 0 0 2500 0 2500 -2500 0 -2500 0 0
-2500z m4870 0 l0 -2370 -2370 0 -2370 0 0 2370 0 2370 2370 0 2370 0 0 -2370z"/>
<path d="M270 2500 l0 -2230 2230 0 2230 0 0 2230 0 2230 -2230 0 -2230 0 0
-2230z m1500 1355 l0 -95 -425 0 -425 0 0 -275 0 -275 370 0 370 0 0 -90 0
-90 -367 -2 -368 -3 0 -300 0 -300 428 -3 427 -2 0 -90 0 -90 -540 0 -540 0 0
855 0 855 535 0 535 0 0 -95z m2259 -1049 c278 -72 431 -301 392 -585 -29
-210 -159 -352 -375 -408 -46 -12 -128 -17 -338 -20 l-278 -5 -2 -331 -3 -332
-110 0 -110 0 -3 853 -2 854 382 -5 c317 -3 394 -7 447 -21z"/>
<path d="M3430 2306 l0 -336 208 0 c114 0 239 5 277 10 193 28 293 150 283
344 -7 141 -64 227 -188 285 -54 26 -59 26 -317 29 l-263 3 0 -335z"/>
</g>
</svg>
